<svg width="48" height="48" viewBox="0 0 48 48" fill="none" xmlns="http://www.w3.org/2000/svg">
<path fill-rule="evenodd" clip-rule="evenodd" d="M2.63526 10.1887C1.38774 10.1887 0.376434 11.2 0.376434 12.4475V27.8828H0.43717C0.397052 28.2534 0.376434 28.6303 0.376434 29.0123C0.376434 34.4181 4.50595 38.8005 9.59996 38.8005C14.694 38.8005 18.8235 34.4181 18.8235 29.0123C18.8235 23.6064 14.694 19.224 9.59996 19.224C7.88096 19.224 6.27179 19.7231 4.89408 20.5921V10.5652C4.89408 10.3573 4.72553 10.1887 4.51761 10.1887H2.63526ZM4.81631 27.8828H4.89408V27.5458C5.47257 25.3485 7.31832 23.7417 9.50585 23.7417C12.1568 23.7417 14.3058 26.1014 14.3058 29.0123C14.3058 31.9231 12.1568 34.2828 9.50585 34.2828C6.85488 34.2828 4.70585 31.9231 4.70585 29.0123C4.70585 28.6246 4.74396 28.2467 4.81631 27.8828Z" fill="#4E91E6"/>
<path d="M21.8353 12.4475C21.8353 11.2 22.8466 10.1887 24.0941 10.1887H25.9764C26.1844 10.1887 26.3529 10.3573 26.3529 10.5652V35.977C26.3529 37.2245 25.3416 38.2358 24.0941 38.2358H21.8353V12.4475Z" fill="#4E91E6"/>
<path d="M12.8941 10.8475C12.8941 11.8352 12.0935 12.6358 11.1058 12.6358C10.1182 12.6358 9.31761 11.8352 9.31761 10.8475C9.31761 9.85993 10.1182 9.05931 11.1058 9.05931C12.0935 9.05931 12.8941 9.85993 12.8941 10.8475Z" fill="black"/>
<path d="M33.5058 19.977C33.5058 18.7294 32.4945 17.7181 31.247 17.7181H29.5529C29.345 17.7181 29.1764 17.8867 29.1764 18.0946V28.2593H29.1769C29.2259 34.0907 33.3364 38.8005 38.4 38.8005C43.4635 38.8005 47.574 34.0907 47.6231 28.2593H47.6235V18.0946C47.6235 17.8867 47.4549 17.7181 47.247 17.7181H45.3647C44.1172 17.7181 43.1058 18.7294 43.1058 19.977V28.1539C43.1058 31.32 40.9568 33.8867 38.3058 33.8867C35.6549 33.8867 33.5058 31.32 33.5058 28.1539V19.977Z" fill="#4E91E6"/>
</svg>
